<?xml version="1.0" encoding="utf-8"?>
<!-- Generator: Adobe Illustrator 17.0.0, SVG Export Plug-In . SVG Version: 6.00 Build 0)  -->
<!DOCTYPE svg PUBLIC "-//W3C//DTD SVG 1.1//EN" "http://www.w3.org/Graphics/SVG/1.1/DTD/svg11.dtd">
<svg version="1.1" id="Layer_1" xmlns="http://www.w3.org/2000/svg" xmlns:xlink="http://www.w3.org/1999/xlink" x="0px" y="0px"
	 width="640px" height="480px" viewBox="0 0 640 480" enable-background="new 0 0 640 480" xml:space="preserve">
<g>
	<g>
		<path fill="#FEFEFE" d="M320.5,323c-42.333,0-84.667-0.039-127,0.084c-2.983,0.009-3.59-0.601-3.583-3.584
			c0.115-52.666,0.115-105.333,0-158c-0.006-2.983,0.601-3.586,3.583-3.582c85,0.102,170,0.102,255,0
			c2.982-0.004,3.59,0.599,3.583,3.582c-0.115,52.666-0.115,105.333,0,158c0.007,2.982-0.599,3.593-3.583,3.584
			C405.834,322.961,363.167,323,320.5,323z"/>
		<path fill="#AEC86E" d="M295.974,250.102c0.002-11.978,0.089-23.958-0.044-35.935c-0.05-4.473,1.793-6.274,6.254-6.235
			c13.974,0.123,27.95,0.098,41.924,0.006c4.241-0.028,5.961,1.819,5.949,6.018c-0.071,23.957-0.083,47.914,0.012,71.871
			c0.018,4.463-1.792,6.289-6.249,6.25c-13.974-0.121-27.95-0.106-41.924-0.017c-4.247,0.027-5.988-1.84-5.956-6.023
			C296.032,274.059,295.972,262.08,295.974,250.102z"/>
		<path fill="#FCFEF4" d="M328.988,257.962c-0.006,5.991-0.119,11.986,0.043,17.973c0.078,2.873-0.592,4.213-3.833,4.122
			c-7.484-0.209-14.979-0.168-22.465-0.016c-2.81,0.057-3.771-0.863-3.744-3.699c0.118-12.481,0.142-24.965-0.004-37.446
			c-0.037-3.159,1.148-3.977,4.093-3.913c7.319,0.16,14.648,0.181,21.966,0.003c3.064-0.075,4.092,0.955,4.004,4.004
			C328.866,245.309,328.994,251.638,328.988,257.962z"/>
		<path fill="#FCFEF4" d="M322.774,231.996c-6.659-0.003-13.32-0.102-19.976,0.045c-2.74,0.061-3.928-0.729-3.806-3.644
			c0.187-4.487,0.195-8.994,0.006-13.48c-0.134-3.186,1.299-4.071,4.191-3.911c2.821,0.156,5.658,0.047,8.488,0.024
			c2.848-0.023,6-0.361,2.954,4.014c-0.647,0.929-1.163,2.3,0.294,3.001c1.373,0.661,2.104-0.478,2.678-1.534
			c0.236-0.434,0.307-0.963,0.564-1.381c0.807-1.315-1.619-4.917,2.211-3.925c4.119,1.066-0.226,2.894-0.103,4.434
			c0.077,0.961-0.494,2.051,0.788,2.5c1.175,0.411,1.856-0.462,2.356-1.339c0.66-1.157,1.256-2.36,0.759-3.777
			c-0.317-0.904-0.183-1.714,0.912-1.824c0.795-0.08,1.751-0.1,2.399,0.269c0.973,0.553,0.31,1.422-0.056,2.13
			c-0.305,0.591-0.679,1.148-0.957,1.751c-0.433,0.939-0.776,2.063,0.311,2.648c1.35,0.726,2.646-0.344,2.663-1.387
			c0.123-7.663,5.694-5.486,9.882-5.53c8.44-0.09,7.625-0.934,7.649,7.828c0.036,13.094,0.02,13.094-13.221,13.092
			C330.099,231.999,326.437,231.999,322.774,231.996z"/>
		<path fill="#FCFEF4" d="M332.006,262.034c0.001-7.474,0.133-14.952-0.061-22.421c-0.085-3.272,0.615-4.674,4.316-4.664
			c10.717,0.027,10.716-0.145,10.719,10.705c0.002,12.623-0.108,25.248,0.077,37.869c0.058,3.95-0.949,5.635-5.28,5.558
			c-9.766-0.173-9.77,0.036-9.771-9.606C332.005,273.661,332.005,267.847,332.006,262.034z"/>
		<path fill="#FCFEF4" d="M314.26,283.042c3.832,0.003,7.666,0.076,11.495-0.025c2.306-0.061,3.318,0.743,3.266,3.173
			c-0.048,2.253-1.114,2.822-3.114,2.81c-7.664-0.047-15.328-0.042-22.991,0c-2.321,0.013-3.849-0.578-3.881-3.313
			c-0.033-2.857,1.866-2.647,3.73-2.647C306.596,283.039,310.428,283.039,314.26,283.042z"/>
		<path fill="#AEC86E" d="M313.81,277.049c-9.529-0.11-8.631,1.33-8.915-9.28c-0.119-4.455,1.009-6.59,5.742-5.805
			c1.129,0.187,2.316,0.014,3.476,0.031c9.629,0.137,8.734-1.52,9.02,9.124c0.12,4.466-1.118,6.641-5.846,5.959
			C316.151,276.915,314.971,277.054,313.81,277.049z"/>
		<path fill="#AEC86E" d="M308.967,241.041c-1.358-0.182-3.49,0.499-3.579-1.484c-0.097-2.166,2.084-1.516,3.39-1.509
			c1.287,0.007,3.394-0.704,3.323,1.572C312.047,241.382,310.201,240.921,308.967,241.041z"/>
		<path fill="#AEC86E" d="M319.077,241.047c-1.262-0.231-3.357,0.474-3.157-1.801c0.158-1.795,2.03-1.216,3.215-1.207
			c1.336,0.01,3.505-0.614,3.5,1.446C322.63,241.461,320.497,240.9,319.077,241.047z"/>
		<path fill="#AEC86E" d="M308.776,247.053c-1.362-0.183-3.504,0.41-3.389-1.675c0.113-2.038,2.26-1.303,3.592-1.343
			c1.19-0.036,3.069-0.514,3.116,1.326C312.152,247.581,310.084,246.842,308.776,247.053z"/>
		<path fill="#AEC86E" d="M319.111,243.967c1.345,0.246,3.523-0.564,3.514,1.52c-0.008,1.978-2.126,1.524-3.507,1.523
			c-1.22-0.001-3.046,0.434-3.189-1.318C315.734,243.306,317.894,244.281,319.111,243.967z"/>
		<path fill="#AEC86E" d="M308.992,253.077c-1.568-0.212-3.714,0.397-3.601-1.691c0.109-2.031,2.257-1.317,3.593-1.352
			c1.186-0.031,3.066-0.536,3.123,1.312C312.175,253.598,310.051,252.747,308.992,253.077z"/>
		<path fill="#AEC86E" d="M319.209,253.053c-1.324-0.193-3.383,0.482-3.314-1.714c0.057-1.828,1.944-1.334,3.133-1.304
			c1.335,0.033,3.484-0.679,3.583,1.36C322.712,253.467,320.572,252.878,319.209,253.053z"/>
		<path fill="#AEC86E" d="M308.989,259.076c-1.583-0.183-3.71,0.402-3.596-1.686c0.111-2.03,2.251-1.321,3.586-1.355
			c1.188-0.03,3.065-0.525,3.118,1.316C312.162,259.593,310.038,258.744,308.989,259.076z"/>
		<path fill="#AEC86E" d="M319.234,259.064c-1.314-0.228-3.468,0.413-3.317-1.72c0.147-2.07,2.281-1.243,3.599-1.306
			c1.203-0.058,3.1-0.44,3.114,1.344C322.646,259.5,320.596,258.883,319.234,259.064z"/>
		<path fill="#AEC86E" d="M321.459,229.017c-2.652,0-5.304,0.016-7.956-0.009c-0.837-0.008-1.745-0.12-2.059-1.048
			c-0.444-1.309,0.44-1.737,1.511-1.945c0.805-0.156,1.945-0.298,1.603-1.362c-1.988-6.185,2.647-4.5,5.539-4.64
			c3.141-0.152,6.297-0.037,9.446,0.013c0.786,0.013,1.734-0.093,2.109,0.897c0.363,0.955-0.118,1.566-0.968,1.938
			c-2.685,1.175-4.555,2.315,0.085,3.301c0.786,0.167,1.11,0.794,0.988,1.471c-0.169,0.94-0.98,1.308-1.846,1.32
			c-2.817,0.039-5.635,0.014-8.452,0.014C321.459,228.984,321.459,229.001,321.459,229.017z"/>
		<path fill="#AEC86E" d="M339.276,238.124c3.689-0.737,4.931,0.635,4.834,4.194c-0.085,3.137-0.52,4.881-4.297,4.838
			c-3.549-0.04-5.06-0.943-4.93-4.765C334.998,239.022,335.795,237.204,339.276,238.124z"/>
		<path fill="#AEC86E" d="M339.904,271.162c-1.702-0.558-4.404,0.87-4.451-1.852c-0.033-1.934,2.323-1.342,3.641-1.246
			c1.605,0.116,4.299-1.116,4.519,1.341C343.822,271.746,341.121,270.587,339.904,271.162z"/>
		<path fill="#FCFEF4" d="M314.034,265.048c6.072-0.017,6.889,0.96,5.978,6.764c-0.208,1.325-0.482,2.171-2.024,2.145
			c-1.599-0.027-2.066-0.812-1.622-2.212c0.654-2.064,0.604-3.639-2.144-3.729c-2.871-0.094-3.413,1.32-2.588,3.788
			c0.34,1.017,0.216,1.981-1.204,2.102c-1.265,0.108-2.067-0.088-2.434-1.658C306.722,266.804,308.105,265.064,314.034,265.048z"/>
		<path fill="#FCFEF4" d="M321.501,226.021c-1.167-0.41-3.395,0.805-3.285-1.642c0.085-1.887,1.996-1.356,3.159-1.273
			c1.255,0.09,3.454-0.822,3.356,1.56C324.655,226.53,322.726,225.766,321.501,226.021z"/>
	</g>
</g>
</svg>
