<?xml version="1.0" encoding="utf-8"?>
<!-- Generator: Adobe Illustrator 17.0.0, SVG Export Plug-In . SVG Version: 6.00 Build 0)  -->
<!DOCTYPE svg PUBLIC "-//W3C//DTD SVG 1.1//EN" "http://www.w3.org/Graphics/SVG/1.1/DTD/svg11.dtd">
<svg version="1.1" id="Layer_1" xmlns="http://www.w3.org/2000/svg" xmlns:xlink="http://www.w3.org/1999/xlink" x="0px" y="0px"
	 width="640px" height="480px" viewBox="0 0 640 480" enable-background="new 0 0 640 480" xml:space="preserve">
<g>
	<g>
		<path fill="#B2CB72" d="M371,285c-3.057,3.12-7.286,3.149-11.089,3.673c-17.195,2.368-34.446,2.393-51.665,0.093
			c-3.003-0.401-6.001-1.124-8.884-2.06c-3.496-1.134-3.605-6.316-0.11-8.989c4.397-3.364,9.399-5.538,14.804-6.823
			c2.527-0.601,5.92-0.855,5.714-4.378c-0.196-3.351-0.944-6.987-5.148-8.056c-4.441-1.129-7.827-3.721-9.882-7.747
			c-1.447-2.835-5.179-3.542-6.106-6.377c-1.721-5.266-1.853-10.867-2.203-16.375c-0.486-7.642,3.777-13.787,8.339-18.715
			c5.719-6.178,13.445-10.124,22.596-8.783c1.969,0.289,3.95,1.15,5.895,0.559c9.571-2.907,17.914,1.406,26.444,4.442
			c1.462,0.52,3.169,1.758,3.746,3.101C365.3,212.866,368.787,216,371,220c0,7,0,14,0,21c-5.777,6.756-9.714,15.285-19.375,18.199
			c-2.595,0.783-3.608,4.524-3.459,7.665c0.118,2.476,2.023,3.421,4.047,3.68c7.145,0.917,13.037,4.501,18.786,8.455
			C371,281,371,283,371,285z M319.499,204.457c0.841,0.547,1.496,1.007,2.183,1.414c3.329,1.973,5.398,4.888,6.26,8.615
			c0.251,1.086,0.397,2.565-1.211,2.799c-1.182,0.172-1.566-0.92-1.857-1.934c-0.274-0.957-0.565-1.948-1.067-2.795
			c-1.913-3.234-4.889-5.306-8.537-5.232c-2.885,0.058-6.33,0.329-7.834,4.333c4.292,0.156,8.384-0.096,11.511,2.981
			c1.044,1.028,2.712,2.279,1.642,3.697c-1.374,1.822-2.471-0.142-3.59-0.998c-4.653-3.561-11.43-3.047-14.906,1.089
			c-0.649,0.772-1.446,1.665-0.917,2.661c0.674,1.268,1.741,0.311,2.596,0.051c3.256-0.989,6.526-1.594,9.714,0.078
			c1.358,0.712,3.705,1.3,2.671,3.403c-1.002,2.038-2.579,0.212-3.81-0.33c-4.427-1.948-8.072-0.455-11.365,2.525
			c-1.242,1.124-1.569,2.763-0.809,4.107c0.795,1.405,2.156,0.144,3.07-0.189c2.594-0.946,5.217-1.172,7.87-0.743
			c3.178,0.514,5.079,1.881,4.105,5.731c-0.664,2.626-1.881,5.266-0.527,8.235c2.538,5.564,4.354,11.489,7.229,16.857
			c2.049,3.826,5.049,7.238,10.309,7.19c7.936-0.072,12.816-3.367,15.799-10.786c1.707-4.245,2.088-8.946,4.96-12.831
			c1.356-1.834,1.617-4.412-0.092-6.56c-1.609-2.023-0.741-3.619,0.666-5.311c2.945-3.54,6.957-4.526,11.152-2.689
			c1.239,0.543,2.192,2.057,3.909,1.457c-1.195-6.126-5.836-9.018-12.649-8.037c-0.978,0.141-2.235,1.652-2.818-0.287
			c-0.614-2.041,1.31-1.812,2.42-2.307c3.821-1.704,7.392,0.121,11.124,1.144c-1.202-6.785-9.076-9.022-15.414-4.876
			c-1.172,0.767-2.295,3.584-3.894,1.427c-1.374-1.853,0.968-3.219,2.34-4.265c3.316-2.528,7.4-2.173,11.57-2.269
			c-5.412-7.01-14.313-5.414-18.042,2.757c-0.522,1.145-0.576,3.156-2.256,2.721c-1.952-0.505-1.106-2.512-0.844-3.832
			c0.214-1.081,1.174-1.992,1.566-3.065c0.924-2.531,4.225-3.046,5.183-5.835c-4.355-1.323-8.334-2.102-12.457,0.093
			c0.362,0.967,0.812,1.869,1.038,2.823c0.816,3.446,0.98,6.936,0.012,10.362c-0.338,1.195-0.889,2.975-2.459,2.674
			c-1.861-0.357-0.958-2.113-0.845-3.324c0.061-0.649,0.463-1.263,0.549-1.915C333.691,208.067,330.487,200.244,319.499,204.457z
			 M335.056,282.973c-0.47,2.746,0.33,3.932,3.59,4.143c8.108,0.526,15.925-2.402,24.109-1.412c3.653,0.442,6.193-3.127,4.454-4.87
			c-4.383-4.393-10.3-5.667-16-7.417c-3.463-1.063-4.511,2.08-6.715,3.183c-2.059,1.03-3.972,2.533-6.423,2.457
			C335.25,278.968,334.741,280.592,335.056,282.973z M323.268,286.965c1.765,0,2.321,0.145,2.754-0.025
			c1.976-0.773,5.235,2.035,5.98-2.244c0.663-3.81-0.648-5.81-4.592-6.432c-2.466-0.389-4.618-1.861-6.383-3.706
			c-0.977-1.022-1.965-1.702-3.49-1.256c-5.266,1.54-10.582,2.969-15.142,6.19c-1.027,0.725-2.689,1.545-2.155,3.023
			c0.616,1.703,2.659,3.217,4.075,2.987C311.221,284.384,317.729,287.637,323.268,286.965z M334.281,276.733
			c3.239-0.606,6.492-1.204,9.156-3.434c1.224-1.025,3.223-1.783,2.019-3.85c-1.323-2.273-3.177-1.105-4.661-0.124
			c-5.126,3.389-10.074,2.957-15.112-0.23c-0.686-0.434-1.543-2.295-2.797-0.58c-1.034,1.415-0.967,2.747,0.456,3.922
			C326.514,275.055,330.199,276.34,334.281,276.733z M364.508,244.343c3.298-4.616,3.385-8.439,0.418-10.743
			c-3.218-2.499-6.339-1.867-9.302,2.079C360.223,236.825,362.962,239.938,364.508,244.343z M303.306,244.928
			c1.697-4.024,3.375-7.405,7.557-8.485c0.93-0.24,2.006-0.8,1.662-2.057c-0.221-0.81-1.024-1.238-1.932-1.323
			c-3.597-0.34-7.206-0.142-9.38,3.119C299.258,239.116,300.869,241.827,303.306,244.928z M357.104,239.702
			c0.371,6.161-4.645,9.697-4.474,15.329c4.238-1.265,7.178-3.402,8.175-7.439C361.526,244.671,360.579,242.188,357.104,239.702z
			 M315.696,254.977c-1.088-5.517-4.683-9.338-5.07-14.622c-3.483,1.71-4.118,4.425-3.379,7.256
			C308.265,251.503,310.733,254.233,315.696,254.977z"/>
		<path fill="#B2CB72" d="M342.238,249.884c-2.898-0.41-5.381-1.459-6.275-4.647c-0.306-1.092-0.227-2.518-1.729-2.644
			c-1.532-0.128-1.618,1.32-2.09,2.347c-2.078,4.523-5.684,6.041-9.453,4.031c-3.355-1.79-4.665-5.657-3.007-8.881
			c1.935-3.764,6.316-5.065,10.095-2.512c3.298,2.227,5.934,1.789,8.994-0.373c2.573-1.818,5.371-1.289,7.784,0.723
			c2.263,1.887,3.092,4.339,2.132,7.122C347.674,247.997,345.311,249.407,342.238,249.884z M325.835,246.789
			c2.019-0.683,3.799-1.892,3.544-4.124c-0.208-1.819-1.724-3.439-3.765-3.312c-2.206,0.138-3.68,1.645-3.454,3.992
			C322.355,245.364,323.789,246.463,325.835,246.789z M345.938,242.437c-0.488-1.48-1.477-3.135-3.538-3.098
			c-2.21,0.04-3.887,1.647-3.766,3.793c0.116,2.061,1.749,3.759,4.029,3.505C344.57,246.425,345.819,244.984,345.938,242.437z"/>
		<path fill="#B2CB72" d="M334.06,253.506c3.4-1.529,5.709,1.154,8.507,1.857c1.266,0.318,2.106,1.183,1.584,2.538
			c-0.542,1.407-1.985,1.371-2.96,0.839c-4.854-2.647-9.586-2.743-14.416,0.053c-0.808,0.468-2.034,0.379-2.538-0.757
			c-0.501-1.128,0.107-1.86,1.164-2.291C328.231,254.589,330.62,251.878,334.06,253.506z"/>
	</g>
</g>
</svg>
