<?xml version="1.0" encoding="iso-8859-1"?>
<!-- Generator: Adobe Illustrator 19.1.0, SVG Export Plug-In . SVG Version: 6.00 Build 0)  -->
<svg version="1.1" id="Capa_1" xmlns="http://www.w3.org/2000/svg" xmlns:xlink="http://www.w3.org/1999/xlink" x="0px" y="0px"
	 viewBox="0 0 487 487" style="enable-background:new 0 0 487 487;" xml:space="preserve">
<g>
	<path d="M392.031,143l-139-139c-2.5-2.5-6-4-9.5-4c-3.6,0-7,1.4-9.5,4l-139,139c-5.3,5.3-5.3,13.8,0,19.1s13.8,5.3,19.1,0l116-116
		v427.4c0,7.5,6,13.5,13.5,13.5s13.5-6,13.5-13.5V46.1l116,116c2.6,2.6,6.1,4,9.5,4s6.9-1.3,9.5-4
		C397.231,156.8,397.231,148.2,392.031,143z"/>
</g>
<g>
</g>
<g>
</g>
<g>
</g>
<g>
</g>
<g>
</g>
<g>
</g>
<g>
</g>
<g>
</g>
<g>
</g>
<g>
</g>
<g>
</g>
<g>
</g>
<g>
</g>
<g>
</g>
<g>
</g>
</svg>
